<svg id="Capa_1" enable-background="new 0 0 512 512" height="512" viewBox="0 0 512 512" width="512" xmlns="http://www.w3.org/2000/svg"><g><g><g><g><path d="m462.435 388c24.411-38.097 38.565-83.395 38.565-132 0-135.31-109.69-245-245-245s-245 109.69-245 245c0 48.605 14.154 93.903 38.565 132z" fill="#814aa0"/></g><g><path d="m77.688 424c44.676 47.401 108.034 77 178.312 77s133.635-29.599 178.312-77z" fill="#c57a44"/></g></g><g><path d="m231.597 349.174c.116.116.24.219.361.326h10.592c.121-.107.245-.21.361-.326l16.263-16.263c3.111-3.111 3.111-8.202 0-11.314l-16.263-16.263c-3.111-3.111-8.202-3.111-11.314 0l-16.263 16.263c-3.111 3.111-3.111 8.202 0 11.314z" fill="#fed402"/><path d="m260.923 349.5h13.647l15.097-15.097c3.111-3.111 3.111-8.202 0-11.314l-16.263-16.263c-3.111-3.111-8.202-3.111-11.314 0l-16.263 16.263c-3.111 3.111-3.111 8.202 0 11.314z" fill="#fee97d"/><path d="m320.422 349.5c1.159-2.887.575-6.327-1.755-8.657l-16.263-16.264c-3.111-3.111-8.202-3.111-11.314 0l-16.263 16.264c-2.33 2.33-2.914 5.769-1.755 8.657z" fill="#fac600"/><path d="m230 349.5v-14.5c0-4.4-3.6-8-8-8h-23c-4.4 0-8 3.6-8 8v14.5z" fill="#fee97d"/><path d="m288 349.5v-14.5c0-4.4-3.6-8-8-8h-23c-4.4 0-8 3.6-8 8v14.5z" fill="#fed402"/><path d="m261.175 349.5c1.159-2.887.575-6.327-1.755-8.657l-16.263-16.264c-3.111-3.111-8.202-3.111-11.314 0l-16.263 16.264c-2.33 2.33-2.914 5.769-1.755 8.657z" fill="#fac600"/></g><path d="m203.26 388h105.48c12.421-7.427 20.76-21.006 20.76-36.5 0-1.657-1.343-3-3-3h-141c-1.657 0-3 1.343-3 3 0 15.494 8.338 29.073 20.76 36.5z" fill="#fff"/><path d="m201.672 387h30.5c-11.538-7.607-19.172-20.676-19.172-35.5 0-1.657 1.343-3 3-3h-30.5c-1.657 0-3 1.343-3 3 0 14.824 7.634 27.893 19.172 35.5z" fill="#dff6fd"/><g><g><path d="m358.05 145.799h5.068v-17.125c0-8.504 6.918-15.422 15.422-15.422h81.068c8.504 0 15.422 6.918 15.422 15.422v17.125h8.119c1.071 0 2.095.194 3.051.533v-27.178c0-28.473-23.081-51.554-51.554-51.554h-27.076c-28.472 0-51.554 23.081-51.554 51.554v26.88c.656-.149 1.334-.235 2.034-.235z" fill="#ea9b58"/><path d="m358.05 144.798h4.068v-16.124c0-9.07 7.352-16.422 16.422-16.422h3.746c3.375-25.207 24.95-44.652 51.081-44.652h-25.797c-28.472 0-51.554 23.081-51.554 51.554v25.849c.658-.134 1.338-.205 2.034-.205z" fill="#d88a55"/><g><path d="m363.119 175.311v-30.512h-5.068c-5.617 0-10.171 4.554-10.171 10.171v15.256c0 5.617 4.554 10.171 10.171 10.171h5.326c-.171-1.673-.258-3.37-.258-5.086z" fill="#fed2a4"/><path d="m483.151 144.798h-8.119v30.512c0 1.717-.087 3.413-.258 5.086h8.377c5.617 0 10.171-4.554 10.171-10.171v-15.256c0-5.617-4.554-10.171-10.171-10.171z" fill="#ffbd86"/></g><path d="m473.169 230.742h-178.178v-63.55h-13.771c.052.266.083.539.083.82v.646c0 2.369-1.928 4.297-4.297 4.297h-7.63l-3.994 34.045h9.321c2.369 0 4.297 1.928 4.297 4.297v34.36c0 2.369-1.928 4.296-4.297 4.296h-12.788c4.413 9.656 14.156 16.386 25.448 16.386h65.602v121.661h150.622v-126.84c0-16.8-13.618-30.418-30.418-30.418z" fill="#fe5694"/><g fill="#fd3581"><path d="m266.506 206h8.197c2.925 0 5.297 2.371 5.297 5.297v-38.274c-.852.586-1.882.931-2.994.931h-6.741z"/><path d="m280 238.37v7.287c0 2.925-2.371 5.297-5.297 5.297h-12.307c4.614 9.117 14.069 15.386 24.967 15.386h20.606c-15.422-.001-27.969-12.548-27.969-27.97z"/></g><path d="m425.178 225.165h-12.205c-4.575 0-9.007-.62-13.222-1.766v14.196c0 10.673 8.652 19.324 19.324 19.324 10.673 0 19.324-8.652 19.324-19.324v-14.196c-4.215 1.146-8.646 1.766-13.221 1.766z" fill="#ffbd86"/><path d="m420.351 237.595v-11.43h-7.378c-4.575 0-9.005-.614-13.222-1.747v13.177c0 10.673 8.652 19.324 19.324 19.324 3.791 0 7.316-1.108 10.3-2.994-5.416-3.423-9.024-9.449-9.024-16.33z" fill="#f6a96c"/><g><path d="m425.178 226.165h-12.205c-28.086 0-50.854-22.768-50.854-50.854v-46.637c0-9.07 7.353-16.422 16.422-16.422h81.068c9.07 0 16.422 7.352 16.422 16.422v46.637c.001 28.086-22.768 50.854-50.853 50.854z" fill="#fed2a4"/></g><g><path d="m383.087 175.311v-46.637c0-9.07 7.353-16.422 16.422-16.422h-20.969c-9.07 0-16.422 7.353-16.422 16.422v46.637c0 28.086 22.768 50.854 50.854 50.854h12.205c1.477 0 2.936-.077 4.382-.2-26.032-2.224-46.472-24.046-46.472-50.654z" fill="#ffbd86"/></g><g><g><g><path d="m385.371 160.787h-.941c-4.174 0-7.558-3.384-7.558-7.558v-5.959c0-4.174 3.384-7.558 7.558-7.558h.941c4.174 0 7.558 3.384 7.558 7.558v5.959c-.001 4.175-3.384 7.558-7.558 7.558z" fill="#554e56"/></g><g><path d="m445.081 160.787h-.941c-4.174 0-7.558-3.384-7.558-7.558v-5.959c0-4.174 3.384-7.558 7.558-7.558h.941c4.174 0 7.558 3.384 7.558 7.558v5.959c0 4.175-3.384 7.558-7.558 7.558z" fill="#554e56"/></g></g><g><path d="m419.773 173.345h-6.176c-6.264 0-11.36-5.097-11.36-11.36v-9.265c0-4.143 3.358-7.5 7.5-7.5s7.5 3.357 7.5 7.5v5.625h2.537c4.142 0 7.5 3.357 7.5 7.5s-3.358 7.5-7.501 7.5z" fill="#f6a96c"/></g><g><path d="m414.755 208.238c-12.074 0-22.391-8.211-25.089-19.967-.926-4.037 1.595-8.062 5.632-8.987 4.036-.93 8.062 1.595 8.988 5.632 1.125 4.9 5.43 8.322 10.469 8.322s9.345-3.422 10.469-8.322c.926-4.038 4.95-6.562 8.988-5.632 4.037.926 6.559 4.95 5.632 8.987-2.698 11.756-13.014 19.967-25.089 19.967z" fill="#f6a96c"/></g></g><path d="m321.057 67.5h-66.37c-1.826 0-3.243 1.593-3.03 3.407l8.281 70.597h10.821c.594 0 1.138.244 1.533.688.395.443.574 1.012.504 1.602l-2.862 24.397h40.027c1.548 0 2.85-1.159 3.03-2.696l11.095-94.588c.214-1.813-1.203-3.407-3.029-3.407z" fill="#dff6fd"/><g><path d="m268.641 129-3.901-33.255c-.211-1.801 1.196-3.383 3.01-3.383h7.315l-2.517-21.454c-.213-1.814 1.204-3.407 3.03-3.407h-20.892c-1.826 0-3.243 1.593-3.03 3.407l6.815 58.092z" fill="#c8effe"/></g><g><path d="m264.74 95.745 6.999 59.668c.179 1.527 1.473 2.677 3.01 2.677h26.245c1.537 0 2.831-1.151 3.01-2.677l6.999-59.668c.211-1.801-1.196-3.383-3.01-3.383h-40.243c-1.814-.001-3.221 1.582-3.01 3.383z" fill="#a44f3e"/></g><g><path d="m289.715 155.413-6.999-59.668c-.211-1.801 1.196-3.383 3.01-3.383h-17.976c-1.813 0-3.221 1.582-3.01 3.383l6.999 59.668c.179 1.527 1.473 2.677 3.01 2.677h17.975c-1.536 0-2.83-1.151-3.009-2.677z" fill="#883f2e"/></g><path d="m282.303 134.942v-.645c0-2.925-2.371-5.297-5.297-5.297h-18.709c-2.925 0-5.297 2.371-5.297 5.297v7.207h17.759c.594 0 1.138.244 1.533.688.395.443.574 1.012.504 1.602l-3.538 30.16h7.748c2.925 0 5.297-2.371 5.297-5.297v-.645c0-2.925-2.371-5.297-5.297-5.297 2.925 0 5.297-2.371 5.297-5.297v-.645c0-2.925-2.371-5.297-5.297-5.297 2.925 0 5.297-2.371 5.297-5.297v-.645c0-2.925-2.371-5.297-5.297-5.297 2.925.001 5.297-2.37 5.297-5.295z" fill="#fed2a4"/><g><path d="m400.306 388h85.501c10.396-4.083 17.78-14.212 17.78-26.039v-93.571c0-9.83-7.969-17.799-17.799-17.799s-17.799 7.969-17.799 17.799v85.943h-67.683z" fill="#fd3581"/><path d="m485.472 250.593c-9.781.17-17.482 8.465-17.482 18.248v85.492h-66.683v10.07h67.096c5.523 0 10-4.477 10-10v-75.416c0-8.678 6.007-16.408 14.535-18.019 3.339-.631 6.509-.255 9.358.786-2.67-6.633-9.206-11.293-16.824-11.161z" fill="#e30256"/><path d="m401.205 388c.062-.324.101-.656.101-.998v-34.36c0-2.925-2.371-5.297-5.297-5.297h-18.709c-2.925 0-5.297 2.371-5.297 5.297v.645c0 2.925 2.371 5.297 5.297 5.297-2.925 0-5.297 2.371-5.297 5.297v.645c0 2.925 2.371 5.297 5.297 5.297-2.925 0-5.297 2.371-5.297 5.297v.645c0 2.925 2.371 5.297 5.297 5.297-2.925 0-5.297 2.371-5.297 5.297v.645c0 .342.039.674.101.998h29.101z" fill="#fed2a4"/><path d="m372.003 386.357v.643h10.694v-34.358c0-2.925 2.371-5.297 5.297-5.297h-10.694c-2.925 0-5.297 2.371-5.297 5.297v.645c0 2.925 2.371 5.297 5.297 5.297-2.925 0-5.297 2.371-5.297 5.297v.645c0 2.925 2.371 5.297 5.297 5.297-2.925 0-5.297 2.371-5.297 5.297v.645c0 2.925 2.371 5.297 5.297 5.297-2.925-.001-5.297 2.37-5.297 5.295z" fill="#ffbd86"/></g></g><g><path d="m255.994 249.954c-2.369 0-4.297-1.928-4.297-4.297v-.646c0-2.369 1.928-4.296 4.297-4.296v-.521h-29.678l-37.894 37.895-30.759-30.759c.24 1.215.372 2.469.372 3.753v46.962l10.609 10.609c10.905 10.905 28.65 10.905 39.555 0l58.7-58.7z" fill="#00c285"/><path d="m179.283 298.234-20.248-20.248v21.058l9.609 9.609c10.905 10.905 28.65 10.905 39.555 0l8.455-8.455c-10.974 8.895-27.167 8.241-37.371-1.964z" fill="#07b27b"/><path d="m25.231 145.799h8.12v-17.125c0-8.504 6.918-15.422 15.422-15.422h81.068c8.503 0 15.422 6.918 15.422 15.422v17.125h5.068c.7 0 1.379.086 2.034.235v-62.898c0-6.95-5.634-12.584-12.584-12.584h-87.355c-16.705 0-30.246 13.542-30.246 30.246v45.534c.956-.339 1.98-.533 3.051-.533z" fill="#e30256"/><path d="m25.231 144.798h7.12v-16.124c0-7.035 4.432-13.02 10.649-15.359v-12.518c0-16.704 13.542-30.246 30.246-30.246h-20.82c-16.705 0-30.246 13.542-30.246 30.246v44.468c.963-.302 1.988-.467 3.051-.467z" fill="#d2024e"/><path d="m159.035 388v-136.917c0-11.234-9.107-20.341-20.341-20.341h-99.863c-16.799 0-30.418 13.619-30.418 30.418v126.84z" fill="#05e39c"/><g><path d="m26.212 250.59c1.673 0 3.285.247 4.82.679 4.106-11.942 15.429-20.527 28.764-20.527h-20.965c-16.799 0-30.418 13.619-30.418 30.418v7.23c0-9.831 7.969-17.8 17.799-17.8z" fill="#0ed290"/></g><path d="m95.409 225.165h-12.204c-4.578 0-9.008-.633-13.222-1.794v14.224c0 10.673 8.652 19.324 19.325 19.324s19.325-8.652 19.325-19.324v-14.224c-4.216 1.161-8.646 1.794-13.224 1.794z" fill="#ffbd86"/><path d="m90.351 237.595v-11.43h-7.147c-4.575 0-9.005-.614-13.222-1.747v13.177c0 10.673 8.652 19.324 19.325 19.324 3.743 0 7.225-1.082 10.184-2.924-5.48-3.41-9.14-9.47-9.14-16.4z" fill="#f6a96c"/><g><path d="m33.351 175.311v-30.512h-8.12c-5.617 0-10.171 4.554-10.171 10.171v15.256c0 5.617 4.554 10.171 10.171 10.171h8.377c-.17-1.673-.257-3.37-.257-5.086z" fill="#fed2a4"/><path d="m150.332 144.798h-5.069v30.512c0 1.717-.087 3.413-.258 5.086h5.326c5.617 0 10.171-4.554 10.171-10.171v-15.256c.001-5.617-4.553-10.171-10.17-10.171z" fill="#ffbd86"/></g><g><path d="m83.204 226.165h12.205c28.086 0 50.854-22.768 50.854-50.854v-46.637c0-9.07-7.352-16.422-16.422-16.422h-81.068c-9.07 0-16.422 7.352-16.422 16.422v46.637c-.001 28.086 22.768 50.854 50.853 50.854z" fill="#fed2a4"/></g><g><path d="m50.087 175.311v-46.637c0-9.07 7.352-16.422 16.422-16.422h-17.736c-9.07 0-16.422 7.353-16.422 16.422v46.637c0 28.086 22.768 50.854 50.854 50.854h12.205c.928 0 1.85-.028 2.766-.077-26.8-1.438-48.089-23.619-48.089-50.777z" fill="#ffbd86"/></g><g><g><g><path d="m123.011 160.787h.941c4.174 0 7.558-3.384 7.558-7.558v-5.959c0-4.174-3.384-7.558-7.558-7.558h-.941c-4.174 0-7.558 3.384-7.558 7.558v5.959c.001 4.175 3.384 7.558 7.558 7.558z" fill="#554e56"/></g><g><path d="m63.301 160.787h.941c4.174 0 7.558-3.384 7.558-7.558v-5.959c0-4.174-3.384-7.558-7.558-7.558h-.941c-4.174 0-7.558 3.384-7.558 7.558v5.959c0 4.175 3.384 7.558 7.558 7.558z" fill="#554e56"/></g></g><g><path d="m94.785 173.345h-6.176c-4.142 0-7.5-3.357-7.5-7.5s3.358-7.5 7.5-7.5h2.537v-5.625c0-4.143 3.358-7.5 7.5-7.5s7.5 3.357 7.5 7.5v9.265c-.001 6.263-5.097 11.36-11.361 11.36z" fill="#f6a96c"/></g><g><path d="m93.627 208.437c-10.934 0-20.277-7.434-22.72-18.079-.346-1.504.013-3.084.975-4.292.962-1.207 2.422-1.911 3.966-1.911h35.559c1.544 0 3.004.704 3.966 1.911.962 1.208 1.321 2.788.975 4.292-2.444 10.645-11.787 18.079-22.721 18.079z" fill="#fe93bb"/></g><path d="m87.431 190.357c-.346-1.504.013-3.084.975-4.292.962-1.207 2.422-1.911 3.966-1.911h-16.525c-1.544 0-3.004.704-3.966 1.911-.962 1.208-1.321 2.788-.975 4.292 2.443 10.645 11.786 18.079 22.72 18.079 2.901 0 5.684-.537 8.262-1.505-7.137-2.679-12.662-8.753-14.457-16.574z" fill="#fe76a8"/></g><g><path d="m215.484 241.194h44.179c1.548 0 2.85-1.159 3.03-2.696l11.095-94.588c.213-1.814-1.204-3.407-3.03-3.407h-66.37c-1.826 0-3.243 1.593-3.03 3.407l11.095 94.588c.181 1.538 1.484 2.696 3.031 2.696z" fill="#fff"/></g><path d="m233.117 238.499-.869-7.405h-7.797c-1.537 0-2.831-1.151-3.01-2.677l-6.913-58.934c-.211-1.801 1.196-3.383 3.01-3.383h7.086l-2.603-22.188c-.213-1.814 1.204-3.407 3.03-3.407h-20.663c-1.826 0-3.243 1.593-3.03 3.407l11.095 94.588c.18 1.537 1.483 2.696 3.03 2.696h20.663c-1.547-.002-2.849-1.16-3.029-2.697z" fill="#dff6fd"/><g><path d="m214.528 169.482 6.913 58.934c.179 1.527 1.473 2.677 3.01 2.677h26.245c1.537 0 2.831-1.151 3.01-2.677l6.913-58.934c.211-1.801-1.196-3.383-3.01-3.383h-40.071c-1.813 0-3.221 1.582-3.01 3.383z" fill="#fed402"/></g><g><path d="m235.934 228.416-6.913-58.934c-.211-1.801 1.196-3.383 3.01-3.383h-14.493c-1.813 0-3.221 1.582-3.01 3.383l6.913 58.934c.179 1.526 1.473 2.677 3.01 2.677h14.493c-1.538 0-2.831-1.15-3.01-2.677z" fill="#fac600"/></g><g><path d="m26.193 388h85.501v-33.667h-67.683v-85.943c0-9.83-7.969-17.799-17.799-17.799s-17.799 7.969-17.799 17.799v93.571c0 11.827 7.383 21.956 17.78 26.039z" fill="#00c285"/><path d="m23.94 387h16.149c-9.194-4.588-15.527-14.085-15.527-25.039v-93.571c0-6.92 3.957-12.904 9.725-15.848-2.425-1.238-5.164-1.951-8.074-1.951-9.83 0-17.799 7.969-17.799 17.799v93.571c-.001 10.954 6.332 20.451 15.526 25.039z" fill="#07b27b"/><path d="m139.896 388c.062-.324.101-.656.101-.998v-.645c0-2.925-2.371-5.297-5.297-5.297 2.925 0 5.297-2.371 5.297-5.297v-.645c0-2.925-2.371-5.297-5.297-5.297 2.925 0 5.297-2.371 5.297-5.297v-.645c0-2.925-2.371-5.297-5.297-5.297 2.925 0 5.297-2.371 5.297-5.297v-.645c0-2.925-2.371-5.297-5.297-5.297h-18.709c-2.925 0-5.297 2.371-5.297 5.297v34.36c0 .342.039.674.101.998h29.101z" fill="#fed2a4"/><path d="m120.697 387v-34.358c0-2.925 2.371-5.297 5.297-5.297h-10.003c-2.925 0-5.297 2.371-5.297 5.297v34.358z" fill="#ffbd86"/></g></g></g><g><path d="m507 425h-502c-2.761 0-5-2.239-5-5v-28c0-2.761 2.239-5 5-5h502c2.761 0 5 2.239 5 5v28c0 2.761-2.239 5-5 5z" fill="#ea9b58"/></g><g><path d="m49 409c-2.761 0-5-2.239-5-5v-17h-39c-2.761 0-5 2.239-5 5v28c0 2.761 2.239 5 5 5h502c2.761 0 5-2.239 5-5v-11z" fill="#d88a55"/></g><path d="m250.697 245.012v.645c0 2.925 2.371 5.297 5.297 5.297h18.709c2.925 0 5.297-2.371 5.297-5.297v-34.36c0-2.925-2.371-5.297-5.297-5.297h-18.709c-2.925 0-5.297 2.371-5.297 5.297v.645c0 2.925 2.371 5.297 5.297 5.297-2.925 0-5.297 2.371-5.297 5.297v.645c0 2.925 2.371 5.297 5.297 5.297-2.925 0-5.297 2.371-5.297 5.297v.645c0 2.925 2.371 5.297 5.297 5.297-2.925-.002-5.297 2.37-5.297 5.295z" fill="#fed2a4"/><path d="m261 245.657v-34.36c0-2.925 2.371-5.297 5.297-5.297h-10.303c-2.925 0-5.297 2.371-5.297 5.297v.645c0 2.925 2.371 5.297 5.297 5.297-2.925 0-5.297 2.371-5.297 5.297v.645c0 2.925 2.371 5.297 5.297 5.297-2.925 0-5.297 2.371-5.297 5.297v.645c0 2.925 2.371 5.297 5.297 5.297-2.925 0-5.297 2.371-5.297 5.297v.645c0 2.925 2.371 5.297 5.297 5.297h10.303c-2.926-.002-5.297-2.374-5.297-5.299z" fill="#ffbd86"/></g><g><path d="m167.923 69.368 36.407-22.006c1.111-.672 1.298-2.208.38-3.126l-14.401-14.401c-.918-.918-2.454-.732-3.126.38l-22.006 36.407c-1.081 1.788.958 3.827 2.746 2.746z" fill="#fac600"/></g><g><path d="m153.126 60.783 10.183-41.304c.311-1.261-.643-2.479-1.942-2.479h-20.366c-1.298 0-2.253 1.218-1.942 2.479l10.183 41.304c.5 2.028 3.384 2.028 3.884 0z" fill="#fac600"/></g><g><path d="m168.389 87.758 41.304 10.183c1.261.311 2.479-.643 2.479-1.942v-20.366c0-1.298-1.218-2.253-2.479-1.942l-41.304 10.183c-2.028.5-2.028 3.384 0 3.884z" fill="#fac600"/></g><g><g><path d="m352.415 66.951-23.183-38.353c-.672-1.111-2.208-1.298-3.126-.38l-15.171 15.171c-.918.918-.732 2.454.38 3.126l38.353 23.183c1.789 1.08 3.828-.959 2.747-2.747z" fill="#fedf30"/></g><g><path d="m368.214 59.991 10.727-43.513c.311-1.261-.643-2.479-1.942-2.479h-21.455c-1.298 0-2.253 1.218-1.942 2.479l10.727 43.513c.501 2.029 3.385 2.029 3.885 0z" fill="#fedf30"/></g></g></g></svg>