<svg enable-background="new 0 0 492 492" viewBox="0 0 492 492" xmlns="http://www.w3.org/2000/svg"><g id="Master_Layer_1"/><g id="Layer_1"><g><g><g><path clip-rule="evenodd" d="m59.346 155.43h116.359v51.742h-116.359z" fill="#356b8d" fill-rule="evenodd" transform="matrix(.6 -.8 .8 .6 -98.04 166.678)"/></g><g><path clip-rule="evenodd" d="m349.997 121.788h49.438v116.359h-49.438z" fill="#f44236" fill-rule="evenodd" transform="matrix(.776 -.63 .63 .776 -29.618 276.478)"/></g><g><g><g><path clip-rule="evenodd" d="m353.243 295.809c-2.975 3.996-7.292 6.4-11.86 7.056-4.554.654-9.353-.431-13.324-3.404l-1.202-.902-2.632-1.971c-.581-.436-1.306.299-.87.881.534.713 1.004 1.461 1.369 2.27 2.604 5.773 2.069 12.747-1.997 18.176-2.975 3.971-7.277 6.36-11.825 7.014-1.67.24-3.374.245-5.057.01-2.906-.406-5.753-1.531-8.267-3.414l-2.016-1.509c-.586-.438-1.325.317-.867.888.969 1.206 1.803 2.469 2.318 3.912v.002c1.962 5.488 1.221 11.823-2.532 16.835-2.975 3.971-7.277 6.36-11.828 7.014-2.076.297-4.205.233-6.281-.206-2.478-.523-4.883-1.583-7.044-3.201-.595-.446-1.33.333-.852.903 1.052 1.253 1.986 2.559 2.524 4.065 1.962 5.488 1.221 11.823-2.535 16.838-2.975 3.972-7.276 6.36-11.825 7.011-4.554.654-9.353-.429-13.325-3.404l-17.294-15.641-25.519-23.084-.553-.503-26.649-24.104-26.649-24.104-26.651-24.104-21.064-19.057-.01-.01-.007-.005-.015-.012 69.758-93.124s.002.002.01.007c.049.04.302.24.746.558.012.01.025.02.037.027.002.002.005.002.007.005 4.14 2.971 23.911 15.641 49.17 6.9 15.636-5.409 31.621-2.728 44.153 1.618 3.347 1.165 6.234 3.176 8.439 5.753 1.841 2.152 11.364 23.9 17.636 38.463 3.766 8.744 9.006 16.772 15.494 23.74 14.352 15.416 39.273 42.182 39.333 42.224l5.7 4.323c7.962 5.961 9.795 17.288 3.856 25.266z" fill="#efa884" fill-rule="evenodd"/></g></g></g><g><g><path clip-rule="evenodd" d="m394.726 238.677s-19.802 20.774-35.271 28.774c-5.139 2.658-11.348 2.13-15.978-1.339l-65.826-49.309c-13.373-10.017-30.241-14.07-46.741-11.434-15.043 2.403-32.45 2.026-36.37-11.213-.987-3.334.371-6.919 3.273-8.834 9.905-6.533 36.437-22.2 64.183-23.006 37.072-1.077 59.379-13.964 59.379-13.964z" fill="#fdb992" fill-rule="evenodd"/></g></g><g><g><path clip-rule="evenodd" d="m143.715 307.229c7.34 6.678 18.703 6.142 25.381-1.198l11.483-12.62 7.517-8.262c3.339-3.67 4.874-8.345 4.657-12.94-.218-4.609-2.199-9.133-5.896-12.477-7.376-6.671-18.827-5.924-25.52 1.432l-18.82 20.685c-6.678 7.339-6.141 18.702 1.198 25.38z" fill="#fdb992" fill-rule="evenodd"/></g><g><path clip-rule="evenodd" d="m169.096 306.031 11.303-12.423c6.693-7.356 18.144-8.103 25.52-1.432 3.696 3.343 5.678 7.868 5.896 12.477.217 4.595-1.318 9.27-4.657 12.94l-5.637 6.197-5.844 6.424c-6.678 7.34-18.041 7.876-25.381 1.198-7.341-6.679-7.878-18.042-1.2-25.381z" fill="#fdb992" fill-rule="evenodd"/></g><g><path clip-rule="evenodd" d="m117.137 283.046c-7.34-6.678-7.876-18.041-1.198-25.381l5.845-6.424c6.679-7.341 18.042-7.876 25.381-1.199 3.67 3.339 5.639 7.849 5.855 12.44.217 4.596-1.318 9.27-4.657 12.941l-3.758 4.131-2.086 2.292c-6.68 7.342-18.043 7.878-25.382 1.2z" fill="#fdb992" fill-rule="evenodd"/></g><g><path clip-rule="evenodd" d="m196.873 355.593c-7.34-6.678-7.876-18.041-1.198-25.381l2.086-2.292c6.679-7.341 18.042-7.875 25.381-1.198 3.67 3.34 5.639 7.849 5.855 12.44.217 4.596-1.318 9.27-4.657 12.94l-2.086 2.292c-6.678 7.34-18.041 7.877-25.381 1.199z" fill="#fdb992" fill-rule="evenodd"/></g></g></g></g></g></svg>