<svg id="Filled_Outline_1_" enable-background="new 0 0 64 64" viewBox="0 0 64 64" xmlns="http://www.w3.org/2000/svg"><g><g><path d="m4 9h56v48h-56z" fill="#21bfbf"/><path d="m12 17h40v32h-40z" fill="#3f4273"/><path d="m40 13c0-3.869 1.789-8 4-8s4 4.131 4 8zm6-10c0-1.105-.895-2-2-2s-2 .895-2 2 .895 2 2 2 2-.895 2-2z" fill="#d94a70"/><path d="m8 53c0-3.869 1.789-8 4-8s4 4.131 4 8zm6-10c0-1.105-.895-2-2-2s-2 .895-2 2 .895 2 2 2 2-.895 2-2z" fill="#ffd18b"/><path d="m25 21h-6c-1.657 0-3 1.343-3 3v6c0 1.657 1.343 3 3 3h6c1.657 0 3-1.343 3-3v-6c0-1.657-1.343-3-3-3z" fill="#ace6fe"/><circle cx="22" cy="27" fill="#d94a70" r="2"/><path d="m45 33h-6c-1.657 0-3 1.343-3 3v6c0 1.657 1.343 3 3 3h6c1.657 0 3-1.343 3-3v-6c0-1.657-1.343-3-3-3z" fill="#ace6fe"/></g><g fill="#1a1a1a"><path d="m19 34h6c2.206 0 4-1.794 4-4v-6c0-2.206-1.794-4-4-4h-6c-2.206 0-4 1.794-4 4v6c0 2.206 1.794 4 4 4zm-2-10c0-1.103.897-2 2-2h6c1.103 0 2 .897 2 2v6c0 1.103-.897 2-2 2h-6c-1.103 0-2-.897-2-2z"/><path d="m22 30c1.654 0 3-1.346 3-3s-1.346-3-3-3-3 1.346-3 3 1.346 3 3 3zm0-4c.552 0 1 .448 1 1s-.448 1-1 1-1-.448-1-1 .448-1 1-1z"/><path d="m45 32h-6c-2.206 0-4 1.794-4 4v6c0 2.206 1.794 4 4 4h6c2.206 0 4-1.794 4-4v-6c0-2.206-1.794-4-4-4zm2 10c0 1.103-.897 2-2 2h-6c-1.103 0-2-.897-2-2v-6c0-1.103.897-2 2-2h6c1.103 0 2 .897 2 2z"/><path d="m39 36h2v2h-2z"/><path d="m43 36h2v2h-2z"/><path d="m39 40h2v2h-2z"/><path d="m43 40h2v2h-2z"/><path d="m31 20h14v2h-14z"/><path d="m47 20h2v2h-2z"/><path d="m21 44h12v2h-12z"/><path d="m17 44h2v2h-2z"/><path d="m60 8h-11.887c-.467-1.243-1.103-2.304-1.875-3.022.468-.529.762-1.217.762-1.978 0-1.654-1.346-3-3-3s-3 1.346-3 3c0 .761.294 1.449.762 1.978-.771.718-1.408 1.779-1.875 3.022h-35.887c-.553 0-1 .447-1 1v48c0 .553.447 1 1 1h56c.553 0 1-.447 1-1v-48c0-.553-.447-1-1-1zm-1 8h-6v-6h6zm-51.113 32h-2.887v-6h4.184c-.112.314-.184.648-.184 1 0 .761.294 1.449.762 1.978-.771.718-1.408 1.779-1.875 3.022zm43.113-30v30h-34.887c-.467-1.243-1.103-2.304-1.875-3.022.468-.529.762-1.217.762-1.978 0-1.302-.839-2.402-2-2.816v-22.184zm-40 25c0-.552.448-1 1-1s1 .448 1 1-.448 1-1 1-1-.448-1-1zm18-27v-6h6v6zm-2 0h-6v-6h6zm-8 0h-6v-6h6zm-8 8h-6v-6h6zm0 2v6h-6v-6zm0 8v6h-6v-6zm1 12c1.202 0 2.697 2.723 2.96 6h-5.92c.263-3.277 1.758-6 2.96-6zm4 8c.553 0 1-.447 1-1 0-1.005-.112-2.024-.314-3h2.314v6h-6v-2zm5-4h6v6h-6zm8 0h6v6h-6zm8 0h6v6h-6zm8 0h6v6h-6zm8-8h6v6h-6zm0-2v-6h6v6zm0-8v-6h6v6zm0-8v-6h6v6zm-2-14v6h-6v-2h3c.553 0 1-.447 1-1 0-1.005-.112-2.024-.314-3zm-8-7c0-.552.448-1 1-1s1 .448 1 1-.448 1-1 1-1-.448-1-1zm1 3c1.202 0 2.697 2.723 2.96 6h-5.92c.263-3.277 1.758-6 2.96-6zm-4 8h3v2h-6v-6h2.314c-.202.976-.314 1.995-.314 3 0 .553.447 1 1 1zm-29-4v6h-6v-6zm-6 40h2.314c-.202.976-.314 1.995-.314 3 0 .553.447 1 1 1h3v2h-6zm48 6v-6h6v6z"/></g></g></svg>