<?xml version="1.0" encoding="iso-8859-1"?>
<!-- Generator: Adobe Illustrator 19.0.0, SVG Export Plug-In . SVG Version: 6.00 Build 0)  -->
<svg version="1.1" id="Layer_1" xmlns="http://www.w3.org/2000/svg" xmlns:xlink="http://www.w3.org/1999/xlink" x="0px" y="0px"
	 viewBox="0 0 512 512" style="enable-background:new 0 0 512 512;" xml:space="preserve">
<path style="fill:#EC7462;" d="M153.566,320.386H96.859v-34.941c0-2.277,1.845-4.122,4.122-4.122h48.464
	c2.277,0,4.122,1.845,4.122,4.122v34.941H153.566z"/>
<path style="fill:#DB4E40;" d="M132.95,281.324v39.063h20.616v-34.942c0-2.276-1.846-4.121-4.123-4.121H132.95z"/>
<path style="fill:#EC7462;" d="M252.75,320.386h-56.707v-34.941c0-2.277,1.845-4.122,4.122-4.122h48.464
	c2.276,0,4.122,1.845,4.122,4.122L252.75,320.386L252.75,320.386z"/>
<path style="fill:#DB4E40;" d="M232.133,281.324v39.063h20.616v-34.942c0-2.276-1.846-4.121-4.123-4.121H232.133z"/>
<path style="fill:#FAD06A;" d="M117.59,41.722H60.882v-37.6C60.882,1.845,62.728,0,65.004,0h48.464c2.277,0,4.122,1.845,4.122,4.122
	C117.59,4.122,117.59,41.722,117.59,41.722z"/>
<path style="fill:#F5BE48;" d="M96.974,0v41.722h20.616V4.121c0-2.276-1.846-4.121-4.123-4.121H96.974z"/>
<path style="fill:#FAD06A;" d="M216.773,41.722h-56.708v-37.6c0-2.277,1.845-4.122,4.122-4.122h48.464
	c2.277,0,4.122,1.845,4.122,4.122V41.722z"/>
<path style="fill:#F5BE48;" d="M196.157,0v41.722h20.616V4.121c0-2.276-1.846-4.121-4.123-4.121H196.157z"/>
<path style="fill:#76D3BD;" d="M351.933,130.98h-56.707V86.055c0-2.276,1.845-4.122,4.122-4.122h48.464
	c2.277,0,4.122,1.845,4.122,4.122v44.925H351.933z"/>
<path style="fill:#5AB8A2;" d="M331.317,81.933v49.046h20.616V86.054c0-2.276-1.846-4.121-4.123-4.121H331.317z"/>
<path style="fill:#76D3BD;" d="M451.116,130.98h-56.707V86.055c0-2.276,1.845-4.122,4.122-4.122h48.464
	c2.277,0,4.122,1.845,4.122,4.122v44.925H451.116z"/>
<path style="fill:#5AB8A2;" d="M430.5,81.933v49.046h20.616V86.054c0-2.276-1.846-4.121-4.123-4.121H430.5z"/>
<path style="fill:#FAD06A;" d="M473.5,316.729v191.15c0,2.276-1.846,4.121-4.123,4.121H78.598c-2.277,0-4.123-1.845-4.123-4.121
	v-191.15c0-2.276,1.846-4.121,4.123-4.121h390.779C471.654,312.608,473.5,314.453,473.5,316.729z"/>
<path style="fill:#F5BE48;" d="M452.883,312.608V512h16.494c2.277,0,4.123-1.845,4.123-4.121v-191.15
	c0-2.276-1.846-4.121-4.123-4.121H452.883z"/>
<path style="fill:#EC7462;" d="M469.377,312.608H278.109c-2.276,0-4.122-1.845-4.122-4.122V117.34c0-2.277,1.845-4.122,4.122-4.122
	h191.267c2.276,0,4.122,1.845,4.122,4.122v191.146C473.499,310.763,471.653,312.608,469.377,312.608z"/>
<path style="fill:#DB4E40;" d="M452.883,113.218v199.39h16.493c2.277,0,4.123-1.845,4.123-4.121V117.339
	c0-2.276-1.846-4.121-4.123-4.121C469.376,113.218,452.883,113.218,452.883,113.218z"/>
<path style="fill:#76D3BD;" d="M233.889,230.675H42.622c-2.277,0-4.122-1.845-4.122-4.122V35.407c0-2.277,1.845-4.122,4.122-4.122
	h191.267c2.277,0,4.122,1.845,4.122,4.122v191.146C238.011,228.829,236.166,230.675,233.889,230.675z"/>
<path style="fill:#5AB8A2;" d="M217.37,31.285v199.39h16.543c2.277,0,4.123-1.845,4.123-4.121V35.406
	c0-2.276-1.846-4.121-4.123-4.121C233.913,31.285,217.37,31.285,217.37,31.285z"/>
<path style="fill:#F5BE48;" d="M105.4,488.595c-4.142,0-7.5-3.357-7.5-7.5V343.514c0-4.143,3.358-7.5,7.5-7.5h337.176
	c4.142,0,7.5,3.357,7.5,7.5s-3.358,7.5-7.5,7.5H112.9v130.081C112.9,485.237,109.542,488.595,105.4,488.595z"/>
<path style="fill:#DB4E40;" d="M304.912,289.203c-4.142,0-7.5-3.357-7.5-7.5V144.124c0-4.143,3.358-7.5,7.5-7.5h137.663
	c4.142,0,7.5,3.357,7.5,7.5s-3.358,7.5-7.5,7.5H312.412v130.079C312.412,285.846,309.054,289.203,304.912,289.203z"/>
<path style="fill:#5AB8A2;" d="M69.425,207.27c-4.142,0-7.5-3.357-7.5-7.5V62.19c0-4.143,3.358-7.5,7.5-7.5h137.662
	c4.142,0,7.5,3.357,7.5,7.5s-3.358,7.5-7.5,7.5H76.925v130.08C76.925,203.912,73.567,207.27,69.425,207.27z"/>
<g>
</g>
<g>
</g>
<g>
</g>
<g>
</g>
<g>
</g>
<g>
</g>
<g>
</g>
<g>
</g>
<g>
</g>
<g>
</g>
<g>
</g>
<g>
</g>
<g>
</g>
<g>
</g>
<g>
</g>
</svg>
