<svg id="Layer_2" enable-background="new 0 0 512 512" height="512" viewBox="0 0 512 512" width="512" xmlns="http://www.w3.org/2000/svg"><g><g><path d="m72 10h368v492h-368z" fill="#98ca69"/></g><path d="m87 25v462h338v-462zm328 19.125c-4.25-1.509-7.615-4.875-9.125-9.125h9.125zm-124-9.125v24h-70v-24zm-80 0v34h90v-34h34v70h-24.665-108.67-24.665v-70zm84.802 80c-7.689 14.598-22.91 24-39.802 24s-32.113-9.402-39.802-24zm-90.624 0c8.448 20.477 28.429 34 50.822 34s42.374-13.523 50.822-34h38.178v-80h50.503c1.993 9.781 9.716 17.504 19.497 19.497v196.503h-114.284c-2.496-22.468-21.593-40-44.716-40s-42.219 17.532-44.716 40h-114.284v-196.503c9.781-1.993 17.504-9.716 19.497-19.497h50.503v80zm16.185 136c2.434-16.938 17.036-30 34.637-30s32.203 13.062 34.637 30zm69.274 10c-2.434 16.938-17.036 30-34.637 30s-32.203-13.062-34.637-30zm-184.512-226c-1.509 4.25-4.875 7.615-9.125 9.125v-9.125zm-9.125 432.875c4.25 1.509 7.615 4.875 9.125 9.125h-9.125zm124 9.125v-24h70v24zm80 0v-34h-90v34h-34v-70h24.665 108.67 24.665v70zm-84.802-80c7.689-14.598 22.91-24 39.802-24s32.113 9.402 39.802 24zm90.624 0c-8.448-20.477-28.429-34-50.822-34s-42.374 13.523-50.822 34h-38.178v80h-50.503c-1.993-9.781-9.716-17.504-19.497-19.497v-196.503h114.284c2.496 22.468 21.593 40 44.716 40s42.219-17.532 44.716-40h114.284v196.503c-9.781 1.993-17.504 9.716-19.497 19.497h-50.503v-80zm99.053 80c1.509-4.25 4.875-7.615 9.125-9.125v9.125z" fill="#edeff1"/></g></svg>