<svg id="Capa_1" enable-background="new 0 0 512 512" height="512" viewBox="0 0 512 512" width="512" xmlns="http://www.w3.org/2000/svg"><path d="m496.547 95.807c8.534 0 15.453 6.918 15.453 15.453v310.085c0 22.758-18.449 41.207-41.207 41.207h-194.189c-11.379 0-20.604-9.225-20.604-20.604v-346.141z" fill="#ccad76"/><path d="m512 111.26v310.085c0 22.757-18.451 41.207-41.207 41.207h-30.905c22.757 0 41.207-18.451 41.207-41.207v-310.085c0-8.53-6.923-15.453-15.453-15.453h30.905c8.53 0 15.453 6.923 15.453 15.453z" fill="#b5884d"/><path d="m15.453 95.807c-8.535 0-15.453 6.918-15.453 15.453v310.085c0 22.758 18.449 41.207 41.207 41.207h194.189c11.379 0 20.604-9.225 20.604-20.604v-346.141z" fill="#ccad76"/><path d="m240.547 431.72h-194.189c-8.534 0-15.453-6.918-15.453-15.453v-335.913c0-8.534 6.918-15.453 15.453-15.453h194.189c8.534 0 15.453 6.918 15.453 15.453v335.913c0 8.535-6.918 15.453-15.453 15.453z" fill="#f2f2f2"/><path d="m465.642 431.718-194.189.002c-8.534 0-15.453-6.918-15.453-15.453v-335.913c0-8.534 6.918-15.453 15.453-15.453l194.189-.002c8.534 0 15.453 6.918 15.453 15.453v335.913c0 8.535-6.919 15.453-15.453 15.453z" fill="#fff"/><path d="m434.736 431.716h30.905c8.53 0 15.453-6.913 15.453-15.453v-335.911c0-8.53-6.923-15.453-15.453-15.453h-30.905c8.53 0 15.453 6.923 15.453 15.453v335.911c0 8.54-6.923 15.453-15.453 15.453z" fill="#e8e8e8"/><path d="m125.386 138.835-16.405-14.317c-1.94-1.693-4.833-1.693-6.774 0l-16.405 14.317c-3.332 2.908-8.538.541-8.538-3.881v-80.354c0-2.845 2.306-5.151 5.151-5.151h46.358c2.845 0 5.151 2.306 5.151 5.151v80.354c0 4.422-5.206 6.788-8.538 3.881z" fill="#f7aa74"/><path d="m399.852 207.508 11.655-11.655c6.035-6.035 6.035-15.819 0-21.853-6.035-6.035-15.819-6.035-21.853 0l-11.655 11.655c-4.023 4.023-10.546 4.023-14.569 0l-12.384-12.384c-6.035-6.035-15.819-6.035-21.853 0-6.035 6.035-6.035 15.819 0 21.853l12.384 12.384c4.023 4.023 4.023 10.546 0 14.569l-12.384 12.384c-6.035 6.035-6.035 15.819 0 21.853 6.035 6.035 15.819 6.035 21.853 0l12.384-12.384c4.023-4.023 10.546-4.023 14.569 0l11.655 11.655c6.035 6.035 15.819 6.035 21.853 0 6.035-6.035 6.035-15.819 0-21.853l-11.655-11.655c-4.023-4.023-4.023-10.546 0-14.569z" fill="#f49595"/><path d="m108.016 203.502 16.754 16.754c2.012 2.012 5.273 2.012 7.284 0l47.349-47.349c6.035-6.035 15.819-6.035 21.853 0 6.035 6.035 6.035 15.819 0 21.853l-61.918 61.918c-6.035 6.035-15.819 6.035-21.853 0l-31.323-31.323c-6.035-6.035-6.035-15.819 0-21.853 6.036-6.035 15.82-6.035 21.854 0z" fill="#90d399"/><g fill="#d3d3d3"><path d="m268.362 115.895h-23.694c-4.267 0-7.726-3.459-7.726-7.726s3.459-7.726 7.726-7.726h23.694c4.267 0 7.726 3.459 7.726 7.726s-3.459 7.726-7.726 7.726z"/><path d="m267.332 171.525h-23.694c-4.267 0-7.726-3.459-7.726-7.726s3.459-7.726 7.726-7.726h23.694c4.267 0 7.726 3.459 7.726 7.726s-3.459 7.726-7.726 7.726z"/><path d="m267.332 228.185h-23.694c-4.267 0-7.726-3.459-7.726-7.726s3.459-7.726 7.726-7.726h23.694c4.267 0 7.726 3.459 7.726 7.726s-3.459 7.726-7.726 7.726z"/><path d="m267.332 284.845h-23.694c-4.267 0-7.726-3.459-7.726-7.726s3.459-7.726 7.726-7.726h23.694c4.267 0 7.726 3.459 7.726 7.726s-3.459 7.726-7.726 7.726z"/><path d="m267.332 341.505h-23.694c-4.267 0-7.726-3.459-7.726-7.726s3.459-7.726 7.726-7.726h23.694c4.267 0 7.726 3.459 7.726 7.726s-3.459 7.726-7.726 7.726z"/><path d="m267.332 398.165h-23.694c-4.267 0-7.726-3.459-7.726-7.726s3.459-7.726 7.726-7.726h23.694c4.267 0 7.726 3.459 7.726 7.726s-3.459 7.726-7.726 7.726z"/></g><path d="m195.219 310.6h-103.018c-4.267 0-7.726-3.459-7.726-7.726s3.459-7.726 7.726-7.726h103.018c4.267 0 7.726 3.459 7.726 7.726.001 4.266-3.459 7.726-7.726 7.726z" fill="#a5a5a5"/><path d="m174.616 341.505h-61.811c-4.267 0-7.726-3.459-7.726-7.726s3.459-7.726 7.726-7.726h61.811c4.267 0 7.726 3.459 7.726 7.726s-3.459 7.726-7.726 7.726z" fill="#a5a5a5"/><path d="m421.859 310.6h-103.018c-4.267 0-7.726-3.459-7.726-7.726s3.459-7.726 7.726-7.726h103.018c4.267 0 7.726 3.459 7.726 7.726.001 4.266-3.459 7.726-7.726 7.726z" fill="#b7b7b7"/><path d="m401.256 341.505h-61.811c-4.267 0-7.726-3.459-7.726-7.726s3.459-7.726 7.726-7.726h61.811c4.267 0 7.726 3.459 7.726 7.726s-3.459 7.726-7.726 7.726z" fill="#b7b7b7"/></svg>