<svg height="512" viewBox="0 0 24 24" width="512" xmlns="http://www.w3.org/2000/svg"><g id="Layer_2" data-name="Layer 2"><rect fill="#29b3ff" height="12.5" rx="2.75" width="21.5" x="1.25" y="2.25"/><path d="m19.5 8.75h-15a.75.75 0 0 1 0-1.5h15a.75.75 0 0 1 0 1.5z" fill="#ffc545"/><path d="m18.5 7.25h-13a.75.75 0 0 0 -.75.75v11a2.752 2.752 0 0 0 2.75 2.75h9a2.752 2.752 0 0 0 2.75-2.75v-11a.75.75 0 0 0 -.75-.75z" fill="#ffc545"/><g fill="#fff"><path d="m12 18.75a.744.744 0 0 1 -.53-.22l-3-3a.75.75 0 0 1 1.06-1.06l2.47 2.469 2.47-2.469a.75.75 0 0 1 1.06 1.06l-3 3a.744.744 0 0 1 -.53.22z"/><path d="m12 18.75a.75.75 0 0 1 -.75-.75v-7a.75.75 0 0 1 1.5 0v7a.75.75 0 0 1 -.75.75z"/></g></g></svg>