<svg id="Flat" enable-background="new 0 0 64 64" height="512" viewBox="0 0 64 64" width="512" xmlns="http://www.w3.org/2000/svg"><path d="m1 53h10v10h-10z" fill="#e6e6e6"/><path d="m11 19c0-.92.164-1.8.451-2.623l-9.437-3.279c-.645 1.852-1.014 3.833-1.014 5.902 0 2.255.435 4.406 1.196 6.397l9.336-3.554c-.339-.885-.532-1.841-.532-2.843z" fill="#7bc2cc"/><path d="m19 37h4v-10h-4c-1.414 0-2.741-.372-3.895-1.019l-4.869 8.727c2.596 1.454 5.582 2.292 8.764 2.292z" fill="#7bc2cc"/><path d="m11.531 21.843-9.336 3.554c1.514 3.963 4.377 7.259 8.04 9.311l4.869-8.727c-1.627-.912-2.9-2.377-3.573-4.138z" fill="#e6e6e6"/><path d="m2.014 13.098 9.437 3.279c.622-1.784 1.857-3.279 3.454-4.236l-5.12-8.574c-3.594 2.153-6.371 5.516-7.771 9.531z" fill="#e6e6e6"/><path d="m43 1h10v10h-10z" fill="#e6e6e6"/><path d="m53 1h10v10h-10z" fill="#7bc2cc"/><path d="m23 1h10v10h-10z" fill="#e6e6e6"/><path d="m33 1h10v10h-10z" fill="#7bc2cc"/><path d="m19 1c-3.37 0-6.515.948-9.215 2.566l5.12 8.574c1.199-.719 2.597-1.14 4.095-1.14h4v-10z" fill="#7bc2cc"/><path d="m43 2.41-3.59 3.59 3.59 3.59v1.41h-1.41l-3.59-3.59-3.59 3.59h-1.41v-1.41l3.59-3.59-3.59-3.59v-1.41h1.41l3.59 3.59 3.59-3.59h1.41z" fill="#68607c"/><path d="m33 27.051v9.949.069c3.94.495 7 3.859 7 7.931 0 4.411-3.589 8-8 8h-21v10h21c9.925 0 18-8.075 18-18 0-9.588-7.541-17.426-17-17.949z" fill="#7bc2cc"/><path d="m33 27.051c-.333-.019-.662-.051-1-.051h-9v10h9c.339 0 .672.028 1 .069v-.069z" fill="#e6e6e6"/><path d="m11 54.41-3.59 3.59 3.59 3.59v1.41h-1.41l-3.59-3.59-3.59 3.59h-1.41v-1.41l3.59-3.59-3.59-3.59v-1.41h1.41l3.59 3.59 3.59-3.59h1.41z" fill="#68607c"/><path d="m60 63h-26l1.58-6 .53-2 5.92-22.5c-2.43-1.61-4.03-4.37-4.03-7.5 0-4.97 4.03-9 9-9s9 4.03 9 9c0 3.13-1.6 5.89-4.03 7.5l5.92 22.5.53 2z" fill="#ed8383"/><path d="m58.42 57h-22.84l.53-2h21.78z" fill="#68607c"/><path d="m19 37h26v26h-26z" fill="#ffd572"/><g fill="#68607c"><circle cx="26" cy="44" r="2"/><circle cx="38" cy="44" r="2"/><circle cx="26" cy="56" r="2"/><circle cx="38" cy="56" r="2"/><circle cx="32" cy="50" r="2"/></g></svg>