<svg id="Capa_1" enable-background="new 0 0 512 512" height="512" viewBox="0 0 512 512" width="512" xmlns="http://www.w3.org/2000/svg"><g><g><path d="m444.673 398c28.539-40.058 45.327-89.068 45.327-142 0-135.31-109.69-245-245-245s-245 109.69-245 245c0 52.932 16.788 101.942 45.327 142z" fill="#814acb"/></g><path d="m84.396 440.998c43.006 37.369 99.157 60.002 160.604 60.002s117.598-22.633 160.604-60.002z" fill="#c4573a"/><g><path d="m501.331 49.055-14.637-14.637c-1.213-1.213-3.179-1.213-4.391 0l-72.74 72.74h38.057l53.712-53.712c1.212-1.212 1.212-3.178-.001-4.391z" fill="#c4573a"/></g><g><path d="m501.331 49.055-14.637-14.637c-1.213-1.213-3.179-1.213-4.391 0l-72.74 72.74h16.625l56.115-56.115c1.213-1.213 3.179-1.213 4.391 0l8.52 8.52 6.117-6.117c1.213-1.212 1.213-3.178 0-4.391z" fill="#a74b30"/></g><g><path d="m259.678 398v-212.597c0-2.858-2.317-5.175-5.175-5.175h-195.617c-2.858 0-5.175 2.317-5.175 5.175v212.597z" fill="#d4f2f6"/><g><path d="m151.355 201.134c-5.24 5.319-8.491 12.043-9.406 19.46h-12.508c-7.284-1.346-13.899-4.822-19.135-10.058-14.206-14.206-14.236-37.3-.091-51.544l.116-.067-11.838-11.838c-2.143-2.143-5.688-2.017-7.619.319-17.741 21.465-17.85 52.594-.344 74.188h52.304l.108-.878c.898-7.28 4.115-13.871 9.304-19.061.136-.136.279-.264.418-.398l-1.066-1.066c-.109.425-.192.749-.243.943z" fill="#97d729"/><path d="m129.351 221.594h13.483l.108-.878c.898-7.28 4.115-13.871 9.304-19.061.136-.136.279-.264.418-.398l-43.064-43.064c-14.626 14.626-14.626 38.424 0 53.05 5.586 5.586 12.511 9.032 19.751 10.351z" fill="#ffefd2"/><path d="m129.374 221.594h1.349c-1.955-1.32-3.817-2.834-5.545-4.563-12.953-12.953-14.425-33.095-4.435-47.694l-11.143-11.144c-14.626 14.626-14.626 38.424 0 53.05 5.592 5.592 12.526 9.036 19.774 10.351z" fill="#fedba6"/></g><g><path d="m198.403 201.655c1.811 1.811 3.366 3.802 4.682 5.925l36.797-36.797c2.929-2.93 2.929-7.678 0-10.607-2.929-2.928-7.678-2.928-10.606 0l-36.791 36.791c2.121 1.316 4.109 2.879 5.918 4.688z" fill="#d6694b"/><path d="m208.814 221.594c-.702-7.534-3.936-14.877-9.704-20.646-13.136-13.136-34.435-13.136-47.571 0-5.769 5.769-9.002 13.111-9.704 20.646z" fill="#fd3581"/><path d="m162.148 221.594c.702-7.534 3.936-14.877 9.704-20.646 3.952-3.952 8.644-6.706 13.629-8.28-11.585-3.659-24.757-.905-33.942 8.28-5.769 5.769-9.002 13.111-9.704 20.646z" fill="#e30456"/></g><path d="m244.153 361.319v-135.55c0-2.858-2.317-5.175-5.175-5.175h-164.567c-2.858 0-5.175 2.317-5.175 5.175v135.551h174.917z" fill="#fe9738"/><path d="m101 360.32v-134.551c0-2.858 2.317-5.175 5.175-5.175h-31.764c-2.858 0-5.175 2.317-5.175 5.175v134.551z" fill="#fe860a"/><path d="m53.711 360.32h205.966v37.68h-205.966z" fill="#a6e7f0"/><path d="m53.711 360.32h31.289v37.68h-31.289z" fill="#6bd9e7"/><g><circle cx="122.022" cy="261.994" fill="#fff" r="11.385"/></g><g><circle cx="181.017" cy="287.869" fill="#fff" r="11.385"/></g><g><circle cx="131.337" cy="325.129" fill="#fff" r="11.385"/></g><g><path d="m199.11 248.519c7.624-7.624 10.813-17.995 9.589-27.925h-66.748c-1.225 9.931 1.965 20.302 9.589 27.925 13.135 13.136 34.434 13.136 47.57 0z" fill="#fe860a"/></g></g><path d="m293.741 107.158h25.548l-.01-1.01c-.108-11.534 2.953-22.571 8.767-32.148-2.587-4.366-5.746-8.488-9.501-12.242-13.446-13.446-31.531-19.411-49.103-17.919-2.746.233-4.915 2.402-5.148 5.148-1.492 17.572 4.473 35.656 17.919 49.103 3.549 3.549 7.427 6.561 11.528 9.068z" fill="#a2e62e"/><path d="m296.126 89.403c-.326-.312-.662-.607-.983-.928-12.35-12.351-18.371-28.614-18.117-44.799-2.529-.093-5.061-.051-7.584.163-2.746.233-4.915 2.402-5.148 5.148-1.191 14.021 2.382 28.36 10.698 40.416z" fill="#97d729"/><path d="m361.198 107.158c4.1-2.507 7.979-5.52 11.527-9.068 13.446-13.446 19.411-31.531 17.919-49.103-.233-2.746-2.402-4.915-5.148-5.148-17.572-1.492-35.657 4.473-49.103 17.919-12.503 12.503-18.528 29.017-18.113 45.4z" fill="#a2e62e"/><path d="m339.36 89.403c2.954-6.242 7-12.095 12.165-17.26 10.957-10.957 24.993-16.943 39.322-17.978-.003-1.728-.056-3.456-.202-5.178-.233-2.746-2.402-4.915-5.148-5.148-17.572-1.492-35.657 4.473-49.103 17.919-7.948 7.948-13.268 17.52-15.99 27.646h18.956z" fill="#97d729"/><g><path d="m375.606 258.922c-4.363 0-8.612-.488-12.709-1.387v108.815l5.109-3.303c2.27-1.468 4.897-2.243 7.601-2.243s5.331.775 7.601 2.243l5.11 3.303v-108.815c-4.099.899-8.348 1.387-12.712 1.387z" fill="#fff"/><path d="m506.415 89.403h-261.616c-3.556 0-6.187 3.276-5.466 6.759 8.887 42.916 37.537 78.593 76.007 97.106v6.386c0 33.147 27.12 60.267 60.267 60.267s60.267-27.12 60.267-60.267v-6.386c38.47-18.513 67.12-54.191 76.006-97.106.722-3.483-1.909-6.759-5.465-6.759z" fill="#a6e7f0"/><g><path d="m447.62 107.158 17.754-17.755h-38.056l-17.755 17.755z" fill="#6bd9e7"/></g><path d="m293.74 107.158h25.549l-.01-1.01c-.054-5.746.694-11.364 2.159-16.745h-46.446c2.107 3.054 4.503 5.969 7.221 8.687 3.549 3.549 7.427 6.561 11.527 9.068z" fill="#a6e7f0"/><path d="m361.199 107.158c4.1-2.507 7.978-5.52 11.527-9.068 2.718-2.718 5.114-5.632 7.221-8.687h-59.538c-1.562 5.804-2.268 11.787-2.122 17.755z" fill="#6bd9e7"/><path d="m439.115 398-55.364-35.792c-4.957-3.204-11.331-3.204-16.288 0l-55.364 35.792z" fill="#d4f2f6"/><path d="m343.423 398 47.846-30.932-7.518-4.86c-4.957-3.204-11.331-3.204-16.288 0l-55.364 35.792z" fill="#a6e7f0"/></g><g><path d="m374.557 243.155c-23.754-.562-42.462-20.556-42.462-44.316v-5.571c0-6.438-3.688-12.305-9.489-15.098-27.509-13.238-49.062-36.482-60.434-64.333-1.496-3.665 1.228-7.679 5.187-7.679h216.499c3.956 0 6.684 4.01 5.189 7.672-11.376 27.866-32.947 51.123-60.476 64.358-5.789 2.783-9.451 8.657-9.451 15.079v6.388c-.001 24.342-20.093 44.08-44.563 43.5z" fill="#fee903"/></g><g><path d="m337.565 163.668c-15.315-8.859-28.456-20.926-38.596-35.148h-29.617c7.733 13.466 17.992 25.43 30.189 35.148z" fill="#f4d902"/></g><g><path d="m269.348 128.52h212.518c2.711-4.721 5.112-9.626 7.177-14.683 1.496-3.665-1.229-7.678-5.187-7.678h-216.498c-3.958 0-6.683 4.014-5.187 7.678 2.065 5.057 4.466 9.962 7.177 14.683z" fill="#fff"/></g><g><path d="m299.542 163.668c7.075 5.638 14.798 10.524 23.064 14.502 5.801 2.792 9.489 8.66 9.489 15.098v5.571c0 23.76 18.709 43.754 42.463 44.316 24.47.579 44.562-19.158 44.562-43.5v-6.388c0-6.423 3.662-12.297 9.451-15.079 8.28-3.981 16.016-8.874 23.102-14.52z" fill="#a2e62e"/></g><g><path d="m484 441.998h-478c-2.761 0-5-2.239-5-5v-34.998c0-2.761 2.239-5 5-5h478c2.761 0 5 2.239 5 5v34.999c0 2.761-2.239 4.999-5 4.999z" fill="#d6694b"/></g><path d="m54 436.999v-34.999c0-2.761 2.239-5 5-5h-53c-2.761 0-5 2.239-5 5v34.999c0 2.761 2.239 5 5 5h53c-2.761 0-5-2.239-5-5z" fill="#c4573a"/><path d="m322.605 178.17c5.801 2.792 9.489 8.66 9.489 15.098v5.571c0 23.761 18.709 43.754 42.463 44.316 11.213.266 21.499-3.744 29.361-10.499-2.061.249-4.164.363-6.302.312-23.754-.562-42.463-20.556-42.463-44.316v-5.571c0-6.438-3.688-12.305-9.489-15.098-2.766-1.331-5.457-2.787-8.099-4.315h-38.024c7.076 5.638 14.799 10.525 23.064 14.502z" fill="#97d729"/><path d="m262.171 113.837c2.065 5.058 4.47 9.961 7.181 14.683h29.617c-4.978-6.983-9.252-14.47-12.682-22.362h-18.93c-3.957 0-6.682 4.014-5.186 7.679z" fill="#d4f2f6"/><path d="m141.951 220.594c-1.225 9.931 1.965 20.302 9.589 27.925 9.185 9.185 22.357 11.939 33.942 8.28-4.985-1.574-9.677-4.328-13.629-8.28-7.624-7.624-10.813-17.995-9.589-27.925z" fill="#fe7701"/></g></svg>