<svg id="Capa_1" enable-background="new 0 0 512 512" height="512" viewBox="0 0 512 512" width="512" xmlns="http://www.w3.org/2000/svg"><g><g><g><path d="m256 172.68 68.654 164.42-68.654 174.9c-34.69 0-68.06-10.4-96.48-30.08-27.75-19.22-48.96-45.91-61.34-77.19-.36-.92-.63-1.86-.81-2.83l-10.77-59.15c-.17-.96-.25-1.93-.24-2.91.65-44.79 18.58-86.8 50.5-118.28 31.94-31.52 74.26-48.88 119.14-48.88z" fill="#ffea80"/></g><path d="m425.64 339.84c.01.98-.07 1.95-.24 2.91l-10.77 59.15c-.18.97-.45 1.91-.81 2.83-12.38 31.28-33.59 57.97-61.34 77.19-28.42 19.68-61.79 30.08-96.48 30.08v-339.32c44.88 0 87.2 17.36 119.14 48.88 31.92 31.48 49.85 73.49 50.5 118.28z" fill="#ffc34d"/><g><path d="m256 355.13 32.701 41.062-32.701 55.478c-44.96 0-81.54-36.58-81.54-81.54 0-8.28 6.72-15 15-15z" fill="#ff4d88"/></g><g><path d="m219.488 312.345c-4.344.001-8.652-1.877-11.618-5.501-3.177-3.882-7.262-4.521-9.415-4.557-2.172-.056-6.257.469-9.559 4.244l-.603.688c-5.455 6.235-14.93 6.868-21.166 1.416-6.235-5.454-6.869-14.931-1.415-21.166l.603-.689c8.234-9.414 20.141-14.706 32.633-14.489 12.505.206 24.219 5.875 32.139 15.555 5.246 6.412 4.302 15.862-2.11 21.108-2.786 2.28-6.149 3.391-9.489 3.391z" fill="#624d8c"/></g><g><path d="m292.512 312.345c-3.341 0-6.703-1.11-9.49-3.391-6.412-5.246-7.356-14.696-2.11-21.108 7.92-9.68 19.634-15.349 32.139-15.555 12.473-.206 24.398 5.075 32.632 14.488l.604.69c5.454 6.235 4.82 15.712-1.415 21.166-6.236 5.453-15.712 4.82-21.166-1.416l-.603-.689c-3.301-3.773-7.391-4.296-9.559-4.243-2.152.035-6.238.675-9.415 4.557-2.964 3.624-7.273 5.501-11.617 5.501z" fill="#3d2866"/></g><path d="m337.54 370.13c0 44.96-36.58 81.54-81.54 81.54v-96.54h66.54c8.28 0 15 6.72 15 15z" fill="#e62e6b"/></g><g><path d="m221.34 0c-28.53 0-51.75 23.21-51.75 51.75v39.5c0 28.54 23.22 51.75 51.75 51.75 13.32 0 25.48-5.06 34.66-13.36l12.591-58.14-12.591-58.14c-9.18-8.3-21.34-13.36-34.66-13.36zm21.75 91.25c0 12-9.76 21.75-21.75 21.75s-21.75-9.75-21.75-21.75v-39.5c0-12 9.76-21.75 21.75-21.75s21.75 9.75 21.75 21.75z" fill="#ff4d88"/></g><g><g><path d="m99.367 143.008c-12.587 0-13.369-.134-14.441-.317-7.203-1.233-12.468-7.478-12.468-14.785v-112.906c0-8.284 6.716-15 15-15s15 6.716 15 15v97.996c7.651-.012 17.011-.049 24.486-.091h.085c8.245 0 14.952 6.66 14.998 14.916.046 8.284-6.632 15.037-14.917 15.084-12.882.072-21.682.103-27.743.103z" fill="#ff4d88"/></g></g><g><g><path d="m379.22 127.82c.05 8.29-6.63 15.04-14.91 15.09-12.88.07-21.68.1-27.74.1-12.59 0-13.38-.14-14.45-.32-7.2-1.23-12.47-7.48-12.47-14.78v-112.91c0-8.28 6.72-15 15-15 8.29 0 15 6.72 15 15v98c7.65-.02 17.02-.05 24.49-.09h.09c8.24 0 14.95 6.66 14.99 14.91z" fill="#e62e6b"/></g></g><g><path d="m439.54 15v53c0 8.28-6.71 15-15 15-8.28 0-15-6.72-15-15v-53c0-8.28 6.72-15 15-15 8.29 0 15 6.72 15 15z" fill="#e62e6b"/></g><circle cx="424.54" cy="127.99" fill="#e62e6b" r="15"/><g><path d="m458.948 414.257c-7.731 7.731-18.542 12.733-29.875 12.733-9.195 0-18.731-3.295-27.243-11.107-5.433-4.984-10.012-11.224-13.712-18.677s-6.528-16.109-8.45-25.915c-2.703-13.837-2.568-25.133-2.559-25.609.108-7.282 5.989-13.155 13.263-13.263.476 0 11.781-.144 25.609 2.559 19.629 3.834 34.634 11.287 44.601 22.152 17.429 19.001 12.374 43.119-1.634 57.127z" fill="#4da6ff"/></g><g><path d="m53.052 414.257c7.731 7.731 18.542 12.733 29.875 12.733 9.195 0 18.731-3.295 27.243-11.107 5.433-4.984 10.012-11.224 13.712-18.677s6.528-16.109 8.45-25.915c2.703-13.837 2.568-25.133 2.559-25.609-.108-7.282-5.989-13.155-13.263-13.263-.476 0-11.781-.144-25.609 2.559-19.629 3.834-34.634 11.287-44.601 22.152-17.429 19.001-12.374 43.119 1.634 57.127z" fill="#66e6ff"/></g><path d="m273.09 51.75v39.5c0 15.21-6.6 28.91-17.09 38.39v-116.28c10.49 9.48 17.09 23.18 17.09 38.39z" fill="#e62e6b"/></g></svg>