<svg id="Layer_1" enable-background="new 0 0 64 64" viewBox="0 0 64 64" xmlns="http://www.w3.org/2000/svg"><g id="Snakes_x26_Ladders"><path d="m60.8 60-6.8-9h-18v-4h14.9l-30.9-40.6 3.2-2.4 40.8 53.6zm-46.8-9c-1.7 0-3 1.3-3 3s1.3 3 3 3 3-1.3 3-3-1.3-3-3-3z" fill="#314a52"/><path d="m0 6.4 40.8 53.6 3.2-2.4-13.4-17.6h15.4v-4h-18.4l-6.1-8h15.5v-4h-18.6l-6.1-8h15.7v-4h-18.7l-6.1-8z" fill="#597380"/><path clip-rule="evenodd" d="m64 6v8c0 7.7-6.3 14-14 14-5.5 0-10 4.5-10 10v2c0 11-9 20-20 20h-4v-4h4c8.8 0 16-7.2 16-16v-2c0-7.7 6.3-14 14-14 5.5 0 10-4.5 10-10 0-3 4-8 4-8z" fill="#adce74" fill-rule="evenodd"/><path d="m62 4c1.1 0 2 .9 2 2v4c0 7.7-6.3 14-14 14s-14 6.3-14 14v2.3c0 8.7-7 15.7-15.7 15.7h-.3c0 2.2-1.8 4-4 4h-8c-2.2 0-4-1.8-4-4 0-4.4 3.6-8 8.1-8h8.9c3.9 0 7-3.1 7-7v-3c0-11 9-20 20-20h1c6.1 0 11-4.9 11-11v-1c0-1.1.9-2 2-2zm-48 48c-1.1 0-2 .9-2 2s.9 2 2 2 2-.9 2-2-.9-2-2-2z" fill="#0c907d"/><path clip-rule="evenodd" d="m0 56h8v2h-8z" fill="#d7385e" fill-rule="evenodd"/></g></svg>