<svg id="Capa_1" enable-background="new 0 0 512 512" viewBox="0 0 512 512" xmlns="http://www.w3.org/2000/svg"><g><path d="m256 22c-135.31 0-245 109.69-245 245 0 92.139 50.872 172.384 126.051 214.218h237.898c75.179-41.835 126.051-122.079 126.051-214.218 0-135.31-109.69-245-245-245z" fill="#38c674"/><circle cx="256" cy="252" fill="#21b75d" r="200"/><g><g><path d="m156.941 52c-55.229 0-100 44.771-100 100s44.771 100 100 100l42.5-100z" fill="#ffc839"/><path d="m256.941 152c0-55.229-44.771-100-100-100-8.271 0-15 6.729-15 15s6.729 15 15 15v140c-8.271 0-15 6.729-15 15s6.729 15 15 15c55.229 0 100-44.771 100-100z" fill="#ffdd40"/></g><path d="m186.941 88.768c-9.098-4.334-19.269-6.768-30-6.768-38.598 0-70 31.402-70 70s31.402 70 70 70c10.731 0 20.902-2.434 30-6.768z" fill="#ffb332"/><g><path d="m186.937 88.766c.001.001.003.001.004.002-23.627 11.255-40 35.365-40 63.232s16.373 51.977 40 63.232c-.001.001-.003.001-.004.002 23.63-11.255 40.004-35.365 40.004-63.234s-16.374-51.979-40.004-63.234z" fill="#ffc839"/></g></g><path d="m163.177 493.782h102.982l-37.17-341.782h-110c-9.827 0-18.188 7.135-19.749 16.837-8.118 50.465-25.656 203.693 37.811 312.381 8.416 4.683 17.139 8.88 26.126 12.564z" fill="#e9efff"/><path d="m412.76 168.837c-1.561-9.702-9.922-16.837-19.749-16.837h-164.022c-9.827 0-18.188 7.135-19.749 16.837-8.436 52.446-27.02 215.862 45.694 324.945h93.862c8.995-3.686 17.73-7.877 26.153-12.564 63.467-108.688 45.929-261.916 37.811-312.381z" fill="#fff"/><path d="m253.39 192.867-67.397 162.711h54.12l59.471-143.578z" fill="#213159"/><path d="m329.248 271.449-12.322-12.322c-9.763-9.763-25.592-9.763-35.355 0l-35.355 35.355c-9.763 9.763-9.763 25.592 0 35.355l35.355 35.355c9.763 9.763 25.592 9.763 35.355 0l12.322-12.322z" fill="#dae2fe"/><g><path d="m352.281 294.482-23.033-23.033-23.033 23.033c-9.763 9.763-9.763 25.592 0 35.355l23.033 23.033 23.033-23.033c9.763-9.763 9.763-25.592 0-35.355z" fill="#e9efff"/></g><path d="m304.747 68.879-51.357 123.988c-5.283 12.756.774 27.38 13.53 32.663 12.756 5.284 27.38-.774 32.664-13.53l43.431-104.853z" fill="#2d3c6b"/><path d="m415.611 22.958-110.864 45.921 38.269 38.268 91.73-37.996z" fill="#2d3c6b"/><path d="m499.09 15.439c-5.284-12.756-19.908-18.814-32.664-13.53l-50.816 21.049c-12.755 5.284-18.811 19.907-13.527 32.663s19.907 18.813 32.663 13.53l50.814-21.048c12.757-5.283 18.814-19.907 13.53-32.664z" fill="#3c5082"/><ellipse cx="323.882" cy="88.013" fill="#4b6496" rx="30.003" ry="30.005"/><path d="m195.942 332h-65c-12.177 0-21.565 10.794-19.802 22.843.061.418.123.836.185 1.254 8.385 56.198 25.753 102.207 51.843 137.684 24.789 10.158 51.606 16.38 79.683 17.865z" fill="#7255ce"/><g><path d="m381.058 332h-185.116c-12.177 0-21.565 10.794-19.802 22.843.061.418.123.836.185 1.254 9.87 66.151 32.173 118.203 66.522 155.545 4.356.232 8.74.358 13.153.358 32.859 0 64.198-6.485 92.832-18.218 26.09-35.477 43.458-81.486 51.843-137.684.062-.418.124-.836.185-1.254 1.763-12.05-7.625-22.844-19.802-22.844z" fill="#7c66d8"/></g><g fill="#7255ce"><circle cx="338.016" cy="412.613" r="15"/><circle cx="216" cy="378.428" r="15"/><circle cx="302.139" cy="392" r="10"/></g><circle cx="175.927" cy="452" fill="#5c45bf" r="10"/><circle cx="287.262" cy="452" fill="#7255ce" r="20"/></g><g/><g/><g/><g/><g/><g/><g/><g/><g/><g/><g/><g/><g/><g/><g/></svg>