<svg id="Layer_1" enable-background="new 0 0 500.306 500.306" height="512" viewBox="0 0 500.306 500.306" width="512" xmlns="http://www.w3.org/2000/svg"><g><g><g fill="#fed73a"><circle cx="23.694" cy="82.848" r="10.859"/><circle cx="67.13" cy="67.335" r="10.859"/><path d="m23.695 101.092c9.804 0 17.804-7.78 18.205-17.488.025-.249.038-.501.038-.757v-46.763l28.665-10.237v23.585c-1.126-.218-2.285-.341-3.473-.341-10.059 0-18.244 8.184-18.244 18.244s8.184 18.244 18.244 18.244c9.804 0 17.804-7.78 18.205-17.488.025-.249.038-.501.038-.757v-51.967c0-2.402-1.167-4.653-3.131-6.037-1.262-.889-2.751-1.348-4.255-1.348-.835 0-1.675.142-2.483.43l-43.435 15.513c-2.94 1.05-4.901 3.834-4.901 6.955v34.065c-1.126-.218-2.285-.341-3.473-.341-10.06 0-18.245 8.184-18.245 18.244 0 10.059 8.184 18.244 18.245 18.244zm43.435-30.283c-1.916 0-3.473-1.558-3.473-3.474 0-1.915 1.558-3.473 3.473-3.473 1.916 0 3.473 1.558 3.473 3.473s-1.558 3.474-3.473 3.474zm-43.435 8.565c1.916 0 3.473 1.558 3.473 3.473 0 1.916-1.558 3.474-3.473 3.474s-3.474-1.558-3.474-3.474c-.001-1.915 1.558-3.473 3.474-3.473z"/></g><circle cx="455.354" cy="444.287" fill="#3aeee6" r="11.028"/><path d="m496.158 410.68-24.473-24.472c-2.146-2.146-5.371-2.788-8.174-1.626-2.803 1.161-4.63 3.896-4.63 6.929v34.594c-1.143-.221-2.321-.346-3.527-.346-10.216 0-18.527 8.312-18.527 18.528s8.312 18.528 18.527 18.528c9.957 0 18.081-7.901 18.488-17.76.026-.253.039-.509.039-.768v-34.669l11.669 11.669c2.93 2.929 7.678 2.929 10.607 0s2.929-7.678.001-10.607zm-40.804 37.135c-1.945 0-3.527-1.583-3.527-3.528s1.582-3.528 3.527-3.528 3.527 1.583 3.527 3.528-1.582 3.528-3.527 3.528z" fill="#3aeee6"/><g><g><path d="m272.891 136.145c-25.386-27.557-40.989-75.154-8.644-126.097 4.303-6.774 13.278-8.779 20.05-4.474 6.771 4.305 8.773 13.287 4.471 20.063-29.594 46.611-3.285 81.288 5.484 90.806l10.568 10.54-19.333 18.667z" fill="#ffe8d9"/><g><g><path d="m450.407 116.442c8.769-9.518 35.078-44.195 5.484-90.806-4.302-6.776-2.3-15.758 4.471-20.063 6.772-4.305 15.747-2.3 20.05 4.474 32.344 50.944 16.742 98.54-8.644 126.097l-25.948 7.171z" fill="#ffe8d9"/></g></g><path d="m403.216 69.162v16.98c0 17.889-14.502 32.391-32.391 32.391-17.889 0-32.391-14.502-32.391-32.391v-16.98z" fill="#ffe8d9"/><path d="m352.302 148.376 6.557-33.727h23.931l10.41 35.943v18.405h-40.898z" fill="#ffe8d9"/><path d="m341.984 477.075-4.901-33.838c-4.576-31.597.319-63.841 14.066-92.653l10.74-22.509c1.22-2.557 5.069-1.563 4.901 1.265l-1.96 32.995c-1.16 19.534 1.24 39.116 7.085 57.79l17.824 56.949h31.65l-8.928-41.156c-6.054-27.908-4.597-56.925 4.223-84.085l6.11-18.815c3.599-11.083 4.555-22.854 2.79-34.373l-3.59-23.438-51.169-17.059-48.208 17.059-20.591 72.886c-7.101 25.137-7.997 51.624-2.61 77.184l10.918 51.798 15.819 7.073z" fill="#9b4f1d"/><g><path d="m422.793 333.018c3.599-11.083 4.555-22.854 2.79-34.373l-3.59-23.438h-40l3.59 23.438c1.764 11.518.808 23.29-2.79 34.373l-6.11 18.815c-6.059 18.659-8.643 38.193-7.704 57.643.856 3.578 1.835 7.13 2.936 10.649l17.823 56.949 17.414 7.073 14.236-7.073-8.928-41.156c-6.054-27.908-4.597-56.925 4.223-84.085z" fill="#8f491b"/></g></g><path d="m338.433 69.162v-51.013s64.783-1.5 64.783 51.013z" fill="#9b4f1d"/></g><g><g><g><path d="m41.426 205.995c-28.156 21.23-50.038 60.161-34.743 112.765 2.242 7.706 10.302 12.135 18.006 9.89 7.703-2.245 12.131-10.312 9.891-18.019-12.545-43.142 8.255-68.368 22.406-79.875l3.009-2.278 3.361-22.955-17.997-2.202z" fill="#ffe8d9"/><g><path d="m168.162 488.716v-11.797h31.65c7.588 0 14.865 3.016 20.23 8.385 5.449 5.452 1.601 14.775-6.104 14.792l-34.325.054c-6.32.013-11.451-5.11-11.451-11.434z" fill="#3aeee6"/><path d="m88.757 488.716v-11.797h31.65c7.588 0 14.865 3.016 20.23 8.385 5.449 5.452 1.601 14.775-6.104 14.792l-34.325.054c-6.32.013-11.451-5.11-11.451-11.434z" fill="#3aeee6"/><g><path d="m216.967 227.733c-1.506 15.729.052 54.627 47.151 74.81 7.377 3.161 10.798 11.704 7.643 19.081-3.156 7.378-11.695 10.793-19.072 7.633-50.874-21.801-67.014-66.065-65.16-101.524l15.624-16.15z" fill="#ffe8d9"/></g></g><g fill="#ffe8d9"><path d="m171.713 99.005v16.98c0 17.889-14.502 32.391-32.391 32.391-17.889 0-32.391-14.502-32.391-32.391 0-6.324 0-12.647 0-18.971 0-17.875 14.49-32.365 32.365-32.365 18.909.633 32.453 15.792 32.417 34.356z"/><path d="m150.455 136.411h-23.932l-10.191 48.845s6.154 9.393 21.988 9.393 21.667-12.833 21.667-12.833z"/></g></g><path d="m168.802 168.997h-9.815c-.915 10.887-10.03 19.439-21.146 19.439-19.493 0-19.687-17.287-19.687-17.287-11.223-1.333-31.333 2.833-46.5 10.5-7.503 3.793-29.013 17-29.013 17l21.333 36.667 23.705-14.982v-12.729 97.445l51.643 10.598 48.208-10.598v-77.318h33.438v-6.73c0-11.058-3.525-21.829-10.063-30.748-9.796-13.363-25.374-21.258-41.943-21.258h-.16" fill="#3aeee6"/><g><path d="m168.162 83.243c-5.208-10.715-15.743-18.155-28.867-18.594-17.875 0-32.365 14.49-32.365 32.365v9.498h1.898c-.001.001 39.856 6.325 59.334-23.269z" fill="#1c337a"/></g></g><g><g><path d="m67.49 389.681c-.476 0-.959-.045-1.443-.14-13.127-2.561-22.055-15.647-19.902-29.172.651-4.09 4.489-6.878 8.586-6.228 4.091.651 6.879 4.495 6.229 8.585-.897 5.637 2.674 11.061 7.959 12.092 4.066.793 6.719 4.732 5.926 8.797-.7 3.581-3.839 6.066-7.355 6.066z" fill="#cedbe0"/></g><g><path d="m56.664 411.612c-.476 0-.959-.045-1.443-.14-21.778-4.249-36.578-26.033-32.993-48.562.651-4.091 4.489-6.882 8.586-6.228 4.091.651 6.879 4.495 6.229 8.585-2.33 14.64 7.113 28.763 21.05 31.481 4.066.793 6.719 4.732 5.926 8.797-.7 3.582-3.839 6.067-7.355 6.067z" fill="#cedbe0"/></g></g></g><g><g><path d="m459.914 327.824c-1.543 0-3.099-.474-4.437-1.458-3.338-2.454-4.054-7.148-1.6-10.485 3.381-4.599 2.694-11.056-1.531-14.396-3.25-2.568-3.802-7.285-1.233-10.535 2.567-3.25 7.285-3.802 10.534-1.234 10.492 8.292 12.428 24.016 4.314 35.05-1.469 2-3.743 3.058-6.047 3.058z" fill="#cedbe0"/></g><g><path d="m482.335 336.529c-1.543 0-3.099-.474-4.438-1.458-3.337-2.454-4.053-7.148-1.599-10.485 8.781-11.943 6.863-28.823-4.276-37.628-3.25-2.568-3.802-7.285-1.233-10.535 2.567-3.25 7.285-3.801 10.534-1.233 17.407 13.758 20.574 39.904 7.06 58.282-1.47 1.998-3.744 3.057-6.048 3.057z" fill="#cedbe0"/></g></g><g><g><path d="m213.869 56.146c-2.789 0-5.467-1.563-6.761-4.242-5.813-12.044-.682-27.032 11.438-33.411 3.668-1.931 8.201-.521 10.13 3.144 1.93 3.666.521 8.201-3.144 10.13-5.051 2.659-7.255 8.767-4.914 13.618 1.8 3.73.235 8.214-3.495 10.014-1.051.507-2.162.747-3.254.747z" fill="#cedbe0"/></g><g><path d="m189.823 60.615c-2.789 0-5.467-1.563-6.761-4.242-9.644-19.982-1.065-44.883 19.121-55.507 3.667-1.932 8.201-.52 10.13 3.144 1.93 3.666.521 8.201-3.144 10.13-13.118 6.904-18.77 22.925-12.598 35.714 1.8 3.73.235 8.214-3.495 10.014-1.05.506-2.16.747-3.253.747z" fill="#cedbe0"/></g></g></g><path d="m168.162 476.918 23.816-61.406c4.968-12.81 2.289-27.326-6.924-37.519l-28.731-31.785c-.22-.156-.387-.369-.536-.594-.366-.551-.877-.886-1.426-1.031-2.133-.564-3.725 2.033-2.425 3.816l9.802 28.059c3.395 9.719 2.51 20.421-2.435 29.45l-38.895 71.011h-31.65l27.968-61.375c6.163-13.526 3.471-29.441-6.798-40.187l-11.375-11.903c-10.513-11.001-15.323-26.259-13.019-41.301l2.619-17.102h99.377l41.131 64.939c6.427 10.147 7.426 22.815 2.67 33.845l-31.518 73.084h-31.651z" fill="#2f4ca3"/><path d="m322.617 275.207v-77.31c0-11.844-5.355-23.053-14.567-30.49l-35.561-28.71 24.843-24.859 12.067 12.075c8.472 8.478 19.963 13.241 31.945 13.241h.001c5.126 0 9.663 3.036 11.941 7.63 3.471 6.998 10.682 11.809 19.019 11.809s15.549-4.811 19.019-11.809l.474-.888c2.278-4.594 6.816-7.63 11.941-7.63h.001c11.982 0 23.473-4.763 31.945-13.241l12.067-12.075 24.843 24.859-35.561 28.71c-9.212 7.437-14.567 18.646-14.567 30.49v78.198z" fill="#fed73a"/><g><path d="m447.753 112.951-12.067 12.075c-1.165 1.166-2.392 2.254-3.665 3.277l.576.576-35.561 28.71c-9.212 7.437-14.567 18.646-14.567 30.49v87.129h40v-78.198c0-11.844 5.355-23.053 14.567-30.49l35.561-28.71z" fill="#fc0"/></g><g fill="#2f4ca3"><path d="m341.984 488.873v-11.797h-31.65c-7.588 0-14.865 3.016-20.23 8.385-5.449 5.452-1.601 14.775 6.104 14.792l34.325.053c6.32.013 11.451-5.109 11.451-11.433z"/><path d="m421.389 488.873v-11.797h-31.65c-7.588 0-14.865 3.016-20.23 8.385-5.449 5.452-1.601 14.775 6.104 14.792l34.325.053c6.32.013 11.451-5.109 11.451-11.433z"/></g></g></svg>