<svg id="Layer_1" enable-background="new 0 0 461.76 461.76" height="512" viewBox="0 0 461.76 461.76" width="512" xmlns="http://www.w3.org/2000/svg"><g><path d="m94.237 237.788-52.227-69.749c-6.612-8.823-8.958-11.131-1.695-26.892 31.177-67.727 48.613-105.842 56.531-122.447 4.502-9.432 8.124-15.227 14.024-17.54 33.68 12.5 67.748 42.79 101.802 72.47l-26.246 112.247c-49.631 25.884-93.709 49.88-92.189 51.911z" fill="#ffe262"/><path d="m320.397 119.104c-.825-1.105-71.764 34.32-133.971 66.772l-13.716-102.215-61.84-82.501c5.202-2.036 12.15-1.376 23.003 1.858 62.829 18.723 98.628 28.764 120.028 35.773 6.786 2.223 9.314 3.863 12.622 8.012 13.656 17.13 19.563 26.354 53.874 72.301z" fill="#f6d14f"/><path d="m318.864 142.468-57.653 125.14c-5.681 12.33-13.714 19.061-32.982 13.307l-120.54-36.002c-14.205-4.243-21.999-8.63-10.958-32.595l57.169-124.091c5.662-12.291 13.379-17.965 33.719-11.89l112.493 33.598c27.556 8.231 26.985 14.662 18.752 32.533z" fill="#f6c719"/><ellipse cx="99.879" cy="107.816" fill="#fcf4f6" rx="21.338" ry="15.531" transform="matrix(.445 -.895 .895 .445 -41.135 149.232)"/><ellipse cx="173.093" cy="37.122" fill="#f0e3e7" rx="8.769" ry="18.866" transform="matrix(.398 -.917 .917 .398 70.085 181.096)"/><ellipse cx="249.539" cy="70.326" fill="#f0e3e7" rx="8.769" ry="18.866" transform="matrix(.398 -.917 .917 .398 85.62 271.19)"/><ellipse cx="193.943" cy="122.28" fill="#f0e3e7" rx="20.553" ry="17.732" transform="matrix(.329 -.945 .945 .329 14.726 265.275)"/><ellipse cx="217.721" cy="174.423" fill="#f0e3e7" rx="20.553" ry="17.732" transform="matrix(.329 -.945 .945 .329 -18.557 322.743)"/><ellipse cx="238.907" cy="225.723" fill="#f0e3e7" rx="20.553" ry="17.732" transform="matrix(.329 -.945 .945 .329 -52.783 377.196)"/><path d="m422.141 242.159c-4.775 63.061-57.557 100.119-120.448 131.701-40.751-48.376-82.637-99.924-94.437-113.855 35.433-39.761 36.847-44.481 49.169-43.696 1.014.067 134.541 17.371 151.26 19.694 6.345.873 11.324 2.507 14.456 6.156z" fill="#ffb563"/><path d="m412.212 409.141c-.679 3.093-.923 4.289-5.227 9.449-4.59 5.507-13.808 15.52-33.095 37.175-16.812-17.017-44.234-48.718-72.196-81.904l120.448-131.701c2.809 3.239 4.152 8.121 3.672 15.52-.014.149-13.181 149.574-13.602 151.461z" fill="#ffa654"/><path d="m391.21 302.277-12.125 136.623c-1.294 14.585-5.512 25.164-26.531 22.427l-140.868-18.341c-14.239-1.854-24.076-7.2-22.203-28.309l11.701-131.848c1.9-21.405 5.477-30.396 26.818-27.618l140.589 18.305c21.069 2.743 23.991 13.298 22.619 28.761z" fill="#ffd084"/><ellipse cx="279.696" cy="242.159" fill="#f0e3e7" rx="8.769" ry="18.866" transform="matrix(.071 -.998 .998 .071 18.35 504.016)"/><g fill="#fcf4f6"><ellipse cx="281.925" cy="358.24" rx="20.553" ry="19.978" transform="matrix(.124 -.992 .992 .124 -108.434 593.692)"/><ellipse cx="238.907" cy="298.517" rx="20.553" ry="19.978" transform="matrix(.124 -.992 .992 .124 -86.866 498.668)"/><ellipse cx="225.438" cy="406.582" rx="20.553" ry="19.978" transform="matrix(.124 -.992 .992 .124 -205.905 580.001)"/><ellipse cx="336.846" cy="420.468" rx="20.553" ry="19.978" transform="matrix(.124 -.992 .992 .124 -122.056 702.723)"/><ellipse cx="343.812" cy="315.594" rx="20.553" ry="19.978" transform="matrix(.124 -.992 .992 .124 -11.883 617.732)"/></g><ellipse cx="402.926" cy="345.393" fill="#f0e3e7" rx="18.29" ry="5.82" transform="matrix(.071 -.998 .998 .071 29.885 722.865)"/><ellipse cx="363.801" cy="246.638" fill="#f0e3e7" rx="8.769" ry="18.866" transform="matrix(.071 -.998 .998 .071 92.035 592.073)"/></g></svg>